<svg xmlns="http://www.w3.org/2000/svg" viewBox="0 0 120 120"><path fill="#ffd400" d="M60 3 74 13l17-1 6 16 15 9-4 17 8 15-12 13-1 17-17 4-11 13-15-8-15 8-11-13-17-4-1-17L4 69l8-15-4-17 15-9 6-16 17 1z"/><path fill="#090909" d="M60 11 72 20l15-1 5 14 13 8-4 14 7 13-10 11-1 15-15 3-10 11-12-7-12 7-10-11-15-3-1-15L12 68l7-13-4-14 13-8 5-14 15 1z"/><text x="60" y="55" fill="#ffd400" font-family="Arial" font-size="31" font-weight="900" text-anchor="middle">GZ</text><text x="60" y="76" fill="white" font-family="Arial" font-size="12" font-weight="800" text-anchor="middle">APPROVED</text></svg>
